<?xml version="1.0" encoding="iso-8859-1"?>
<!-- Generator: Adobe Illustrator 19.0.0, SVG Export Plug-In . SVG Version: 6.00 Build 0)  -->
<svg version="1.1" id="Capa_1" xmlns="http://www.w3.org/2000/svg" xmlns:xlink="http://www.w3.org/1999/xlink" x="0px" y="0px"
	 viewBox="0 0 512.02 512.02" style="enable-background:new 0 0 512.02 512.02;" xml:space="preserve">
<g>
	<g>
		<path d="M359.216,270.276c-22.272-51.872-41.248-105.76-56.48-160.16l-3.072-11.008c-0.096-0.704-0.256-1.376-0.448-2.048
			c-6.272-22.08-18.016-42.176-33.92-58.048C209.136-17.148,112.688-12.06,50.32,50.308s-67.456,158.816-11.296,214.976
			c15.904,15.904,35.968,27.648,58.048,33.92c0.672,0.224,1.344,0.352,2.048,0.48l11.008,3.072
			c54.4,15.232,108.288,34.176,160.16,56.48c2.016,0.832,4.192,1.28,6.304,1.28c4.16,0,8.256-1.632,11.328-4.672l67.872-67.872
			C360.432,283.3,361.776,276.292,359.216,270.276z"/>
	</g>
</g>
<g>
	<g>
		<path d="M500.272,410.02c-13.44-13.76-34.56-15.68-50.24-5.12l-82.816-82.816l-45.12,45.12l82.816,82.816
			c-10.56,15.68-8.64,36.8,5.12,50.24c15.36,15.68,40.96,15.68,56.32,0c6.4-6.08,10.24-14.08,11.52-22.4
			c8.32-1.28,16.32-5.12,22.4-11.52C515.92,450.948,515.92,425.348,500.272,410.02z"/>
	</g>
</g>
<g>
</g>
<g>
</g>
<g>
</g>
<g>
</g>
<g>
</g>
<g>
</g>
<g>
</g>
<g>
</g>
<g>
</g>
<g>
</g>
<g>
</g>
<g>
</g>
<g>
</g>
<g>
</g>
<g>
</g>
</svg>
