<svg id="Layer_5" enable-background="new 0 0 64 64" height="512" viewBox="0 0 64 64" width="512" xmlns="http://www.w3.org/2000/svg"><g><path d="m14.471 31h7.058l5.101-6.165c.239-.297.37-.66.37-1.039 0-.99-.897-1.796-2-1.796-.427 0-.611.178-1.023.617-.494.525-1.172 1.246-2.479 1.246-1.309 0-1.986-.721-2.48-1.247-.414-.438-.598-.616-1.024-.616-.425 0-.608.178-1.02.616-.494.526-1.171 1.247-2.479 1.247-1.307 0-1.983-.721-2.478-1.247-.41-.438-.593-.616-1.017-.616-1.103 0-2 .806-2 1.796 0 .379.131.742.379 1.05z"/><path d="m27.309 38.083-5.691-5.083h-7.236l-5.662 5.06c-3.01 2.494-4.72 6.123-4.72 9.979 0 7.147 5.853 12.961 13.046 12.961h1.908c7.193 0 13.046-5.814 13.046-12.961 0-3.856-1.71-7.485-4.691-9.956zm-4.309 3.917h-2v-1c0-1.103-.897-2-2-2h-4v4c0 1.103.897 2 2 2h2c2.206 0 4 1.794 4 4v6h-4v2h-2v-2c-2.206 0-4-1.794-4-4v-1h2v1c0 1.103.897 2 2 2h4v-4c0-1.103-.897-2-2-2h-2c-2.206 0-4-1.794-4-4v-6h4v-2h2v2c2.206 0 4 1.794 4 4z"/><circle cx="47" cy="9" r="1"/><path d="m51 3c-5.514 0-10 4.486-10 10s4.486 10 10 10 10-4.486 10-10-4.486-10-10-10zm-7 6c0-1.654 1.346-3 3-3s3 1.346 3 3-1.346 3-3 3-3-1.346-3-3zm2.707 9.707-1.414-1.414 10-10 1.414 1.414zm8.293 1.293c-1.654 0-3-1.346-3-3s1.346-3 3-3 3 1.346 3 3-1.346 3-3 3z"/><circle cx="55" cy="17" r="1"/><path d="m18 19.828 6.414-6.414c.78-.779.78-2.049 0-2.828-.378-.378-.88-.586-1.414-.586s-1.036.208-1.414.586l-1.586 1.586v-6.172h7c1.103 0 2-.897 2-2s-.897-2-2-2h-7c-2.206 0-4 1.794-4 4v6.172l-1.586-1.586c-.378-.378-.88-.586-1.414-.586s-1.036.208-1.414.586-.586.88-.586 1.414.208 1.036.586 1.414z"/><path d="m50 33.172-6.414 6.414c-.78.779-.78 2.049 0 2.828.378.378.88.586 1.414.586s1.036-.208 1.414-.586l1.586-1.586v6.172h-7c-1.103 0-2 .897-2 2s.897 2 2 2h7c2.206 0 4-1.794 4-4v-6.172l1.586 1.586c.378.378.88.586 1.414.586s1.036-.208 1.414-.586.586-.88.586-1.414-.208-1.036-.586-1.414z"/></g></svg>