<svg height="464pt" viewBox="0 0 464 464" width="464pt" xmlns="http://www.w3.org/2000/svg"><path d="m192 432h14.527344c-3.3125-9.289062-12.113282-16-22.527344-16h-112v-16h94.527344c-3.3125-9.289062-12.113282-16-22.527344-16h-80c-10.414062 0-19.214844 6.710938-22.527344 16h14.527344v16h-32c-10.414062 0-19.214844 6.710938-22.527344 16h174.527344v16h-176v16h208v-16h-16zm0 0"/><path d="m152 80h80c4.40625 0 8-3.59375 8-8v-32c0-4.40625-3.59375-8-8-8h-80c-4.40625 0-8 3.59375-8 8v32c0 4.40625 3.59375 8 8 8zm0 0"/><path d="m422.246094 176.199219c1.144531-1.710938 1.753906-3.710938 1.753906-5.773438 0-5.753906-4.671875-10.425781-10.425781-10.425781h-5.574219c-3.871094 0-9.414062 12.105469-12.726562 19.335938-6.152344 13.433593-13.128907 28.664062-27.273438 28.664062-14.230469 0-19.503906-12.015625-23.34375-20.792969-3.6875-8.40625-5.464844-11.207031-8.695312-11.207031-3.21875 0-4.984376 2.800781-8.648438 11.199219-3.832031 8.777343-9.082031 20.800781-23.3125 20.800781-14.121094 0-21.113281-15.222656-27.273438-28.664062-3.320312-7.230469-8.871093-19.335938-12.726562-19.335938h-5.574219c-5.753906 0-10.425781 4.671875-10.425781 10.425781 0 2.0625.609375 4.0625 1.753906 5.78125l42.527344 63.792969h87.4375zm0 0"/><path d="m419.359375 324.496094-39.953125-68.496094h-86.8125l-39.960938 68.496094c-8.265624 14.175781-12.632812 30.335937-12.632812 46.742187 0 51.152344 41.609375 92.761719 92.761719 92.761719h6.484375c51.144531 0 92.753906-41.609375 92.753906-92.761719 0-16.40625-4.367188-32.566406-12.640625-46.742187zm-83.359375 27.503906c17.648438 0 32 14.351562 32 32v32h-24v16h-16v-17.136719c-13.761719-3.574219-24-16-24-30.863281h16c0 8.824219 7.175781 16 16 16h16v-16c0-8.824219-7.175781-16-16-16-17.648438 0-32-14.351562-32-32v-32h24v-16h16v17.136719c13.761719 3.574219 24 16 24 30.863281h-16c0-8.824219-7.175781-16-16-16h-16v16c0 8.824219 7.175781 16 16 16zm0 0"/><path d="m88 368h32v-42.742188c0-30.195312 11.335938-58.65625 32-80.496093v-26.792969c-8.761719-16.074219-25.367188-25.96875-43.777344-25.96875h-8.445312c-18.410156 0-35.015625 9.894531-43.777344 25.960938v26.792968c20.664062 21.847656 32 50.300782 32 80.492188zm0 0"/><path d="m416 11.3125v36.6875h36.6875zm0 0"/><path d="m400 64v-64h-288v176.265625c23.574219 1.335937 44.496094 14.839844 55.160156 36.160156l.839844 1.6875v37.199219l-2.34375 2.34375c-19.128906 19.128906-29.65625 44.550781-29.65625 71.601562v42.742188h8c19.3125 0 35.472656 13.769531 39.191406 32h.808594c19.3125 0 35.472656 13.769531 39.191406 32h19.402344c-11.738281-17.359375-18.59375-38.273438-18.59375-60.761719 0-19.230469 5.128906-38.183593 14.816406-54.804687l39.757813-68.152344-42.132813-63.210938c-2.90625-4.351562-4.441406-9.421874-4.441406-14.644531 0-14.578125 11.847656-26.425781 26.425781-26.425781h5.574219c14.121094 0 21.113281 15.222656 27.273438 28.664062 3.320312 7.230469 8.871093 19.335938 12.726562 19.335938 3.214844 0 4.984375-2.800781 8.648438-11.199219 3.832031-8.777343 9.078124-20.800781 23.320312-20.800781 14.230469 0 19.503906 12.015625 23.34375 20.785156 3.679688 8.414063 5.457031 11.214844 8.6875 11.214844 3.871094 0 9.414062-12.105469 12.726562-19.335938 6.152344-13.433593 13.128907-28.664062 27.273438-28.664062h5.574219c14.578125 0 26.425781 11.847656 26.425781 26.425781 0 5.222657-1.535156 10.292969-4.433594 14.652344l-42.140625 63.210937 39.757813 68.152344c9.6875 16.613282 14.816406 35.566406 14.816406 54.796875 0 22.488281-6.855469 43.402344-18.59375 60.761719h34.59375v-368zm-128-48h112v16h-112zm112 32v16h-80v-16zm-112 0h16v16h-16zm-144-8c0-13.230469 10.769531-24 24-24h80c13.230469 0 24 10.769531 24 24v32c0 13.230469-10.769531 24-24 24h-80c-13.230469 0-24-10.769531-24-24zm88 120h-88v-16h88zm200-32h-288v-16h288zm32 0h-16v-16h16zm0-32h-176v-16h176zm0 0"/></svg>