<?xml version="1.0" encoding="iso-8859-1"?>
<!-- Generator: Adobe Illustrator 19.0.0, SVG Export Plug-In . SVG Version: 6.00 Build 0)  -->
<svg version="1.1" id="Capa_1" xmlns="http://www.w3.org/2000/svg" xmlns:xlink="http://www.w3.org/1999/xlink" x="0px" y="0px"
	 viewBox="0 0 512 512" style="enable-background:new 0 0 512 512;" xml:space="preserve">
<g>
	<g>
		<g>
			<rect x="137.143" y="342.857" width="73.143" height="18.286"/>
			<path d="M18.286,297.143h82.286c0-5.049,4.093-9.143,9.143-9.143s9.143,4.093,9.143,9.143h128V196.571H137.143
				c-10.087-0.03-18.256-8.199-18.286-18.286V68.571c0.029-10.087,8.199-18.256,18.286-18.286h47.909L176.914,32H0v18.286h82.286
				c10.087,0.029,18.256,8.199,18.286,18.286v109.714c-0.03,10.087-8.199,18.256-18.286,18.286H0v82.286
				C0.03,288.944,8.199,297.113,18.286,297.143z M100.571,205.714c0-5.049,4.093-9.143,9.143-9.143s9.143,4.093,9.143,9.143v9.143
				c0,5.049-4.093,9.143-9.143,9.143s-9.143-4.093-9.143-9.143V205.714z M100.571,251.429c0-5.049,4.093-9.143,9.143-9.143
				s9.143,4.093,9.143,9.143v9.143c0,5.049-4.093,9.143-9.143,9.143s-9.143-4.093-9.143-9.143V251.429z"/>
			<path d="M265.143,242.286v54.857h63.36C323.909,265.675,296.944,242.329,265.143,242.286z"/>
			<polygon points="137.143,178.286 241.92,178.286 193.189,68.571 137.143,68.571 			"/>
			<path d="M82.286,68.571H0v109.714h82.286V68.571z M20.937,98.651l9.143-9.143c2.319-2.319,5.699-3.225,8.867-2.376
				s5.643,3.323,6.491,6.491s-0.057,6.548-2.376,8.867l-9.143,9.143c-3.606,3.535-9.377,3.535-12.983,0
				C17.371,108.041,17.371,102.245,20.937,98.651z M61.349,129.92L33.92,157.349c-3.606,3.535-9.377,3.535-12.983,0
				c-3.565-3.593-3.565-9.389,0-12.982l27.429-27.429c3.591-3.55,9.375-3.533,12.945,0.037
				C64.882,120.545,64.898,126.329,61.349,129.92z"/>
			<rect x="228.571" y="315.429" width="100.571" height="73.143"/>
			<rect x="137.143" y="379.429" width="73.143" height="9.143"/>
			<path d="M419.017,480h65.554c15.13-0.045,27.384-12.299,27.429-27.429v-82.286h-22.4L419.017,480z"/>
			<polygon points="499.109,169.143 398.811,169.143 407.954,187.429 480.823,187.429 			"/>
			<path d="M316.526,242.103c4.711,3.797,9.003,8.089,12.8,12.8l61.349-61.166l-8.594-17.279L316.526,242.103z"/>
			<rect x="137.143" y="315.429" width="73.143" height="9.143"/>
			<polygon points="493.714,200.319 493.714,352 512,352 512,182.033 			"/>
			<path d="M338.286,406.857H27.429C12.299,406.901,0.044,419.156,0,434.286v18.286c0.045,15.13,12.299,27.384,27.429,27.429
				h310.857c15.13-0.045,27.384-12.299,27.429-27.429v-18.286C365.67,419.156,353.416,406.901,338.286,406.857z M45.714,470.857
				c-15.148,0-27.429-12.28-27.429-27.429S30.566,416,45.714,416s27.429,12.28,27.429,27.429
				C73.098,458.559,60.844,470.813,45.714,470.857z M320,470.857c-15.148,0-27.429-12.28-27.429-27.429S304.852,416,320,416
				s27.429,12.28,27.429,27.429C347.384,458.559,335.13,470.813,320,470.857z"/>
			<path d="M45.714,434.286c-5.049,0-9.143,4.093-9.143,9.143c0,5.049,4.093,9.143,9.143,9.143s9.143-4.093,9.143-9.143
				C54.842,438.385,50.758,434.3,45.714,434.286z"/>
			<rect x="45.714" y="315.429" width="73.143" height="73.143"/>
			<path d="M320,434.286c-5.049,0-9.143,4.093-9.143,9.143c0,5.049,4.093,9.143,9.143,9.143c5.049,0,9.143-4.093,9.143-9.143
				C329.128,438.385,325.043,434.3,320,434.286z"/>
		</g>
	</g>
</g>
<g>
</g>
<g>
</g>
<g>
</g>
<g>
</g>
<g>
</g>
<g>
</g>
<g>
</g>
<g>
</g>
<g>
</g>
<g>
</g>
<g>
</g>
<g>
</g>
<g>
</g>
<g>
</g>
<g>
</g>
</svg>
