<svg id="Layer_5" enable-background="new 0 0 64 64" height="512" viewBox="0 0 64 64" width="512" xmlns="http://www.w3.org/2000/svg"><g><path d="m32.926 17-.308 4h6.764l-.308-4z"/><path d="m8 41c0-7.18 5.82-13 13-13 3.399 0 6.493 1.306 8.809 3.442l.29-3.773-.15.075-.477-.298c-1.514-.949-3.156-1.63-4.881-2.026l-.431-.099-.744-1.321h-4.832l-.745 1.321-.431.099c-1.725.396-3.367 1.078-4.881 2.026l-.477.298-2.167-1.083-3.223 3.223 1.084 2.168-.298.476c-.948 1.514-1.63 3.155-2.026 4.881l-.126.548-2.294.764v4.559l2.294.765.126.548c.396 1.725 1.078 3.367 2.026 4.881l.298.477-1.084 2.165 3.224 3.224 2.167-1.084.476.298c.338.212 1.495.882 2.473 1.446v-3.47c-4.159-2.168-7-6.516-7-11.53z"/><path d="m49.074 45h9.853l-1.429-20h-6.996zm3.926-18h2v2h-2zm0 4h2v2h-2zm0 4h2v2h-2zm0 4h2v2h-2z"/><path d="m50.931 19-.286 4h6.71l-.286-4z"/><path d="m31.388 37h9.225l-1.077-14h-7.071zm3.612-12h2v2h-2zm0 4h2v2h-2zm0 4h2v2h-2z"/><path d="m33 55h4v6h-4z"/><path d="m43 45v-6h-26v22h10v-11.414l4.586-4.586zm-22 14h-2v-2h2zm0-4h-2v-2h2zm0-4h-2v-2h2zm0-4h-2v-2h2zm0-4h-2v-2h2zm4 16h-2v-2h2zm0-4h-2v-2h2zm0-4h-2v-2h2zm0-4h-2v-2h2zm0-4h-2v-2h2zm14-2h2v2h-2zm-4 0h2v2h-2zm-6 2h-2v-2h2zm2-2h2v2h-2z"/><path d="m43 55h4v6h-4z"/><path d="m30.414 49h30.586v-2h-28.586z"/><path d="m29 61h2v-8h8v8h2v-8h8v8h2v-8h8v8h2v-10h-32z"/><path d="m53 55h4v6h-4z"/><path d="m60 7h-9v2h9c.552 0 1 .449 1 1s-.448 1-1 1h-2c-1.654 0-3 1.346-3 3v1h2v-1c0-.551.448-1 1-1h2c1.654 0 3-1.346 3-3s-1.346-3-3-3z"/><path d="m48 13h2c.552 0 1 .449 1 1v1h2v-1c0-1.654-1.346-3-3-3h-2c-1.654 0-3-1.346-3-3s1.346-3 3-3h7v-2h-7c-2.757 0-5 2.243-5 5s2.243 5 5 5z"/><path d="m57 3h2v2h-2z"/><path d="m9 7h7c.552 0 1 .449 1 1 0 1.654 1.346 3 3 3h12c.552 0 1 .449 1 1v1h2v-1c0-1.654-1.346-3-3-3h-12c-.552 0-1-.449-1-1 0-1.654-1.346-3-3-3h-7c-.552 0-1-.449-1-1s.448-1 1-1h11v-2h-11c-1.654 0-3 1.346-3 3s1.346 3 3 3z"/><path d="m29 7h3c2.757 0 5 2.243 5 5v1h2v-1c0-3.86-3.141-7-7-7h-3c-.552 0-1-.449-1-1s.448-1 1-1h11v-2h-11c-1.654 0-3 1.346-3 3s1.346 3 3 3z"/></g></svg>