<svg height="512" viewBox="0 0 57 57" width="512" xmlns="http://www.w3.org/2000/svg"><g id="Page-1" fill="none" fill-rule="evenodd"><g id="043---Mining-Game" fill="rgb(0,0,0)" fill-rule="nonzero"><path id="Shape" d="m26.856.894c.2455158-.49157949.8416687-.69297646 1.335-.451l1.8.9c.4919736.24627303.6926054.84370009.449 1.337l-.45.895-2.99-1.486-.594-.3zm3.571 6.263-2.686 5.363c-.2474353.493729-.8482561.6934057-1.342.446l-5.36-2.682c-.2372731-.1186456-.4176795-.32670923-.5015133-.57839797-.0838337-.25168873-.064224-.52637476.0545133-.76360203l2.685-5.363c.2474353-.49372901.8482561-.69340568 1.342-.446l5.365 2.684c.4914417.24849298.689488.84754965.443 1.34zm-9.966-4.848c.261072.10317473.4667554.31133242.566801.57361941.1000457.26228698.0852396.55454726-.040801.80538059l-1.487 2.968-.268.535c-.2440309.48194954-.8267139.68296633-1.316.454-5.6148267-2.62880755-11.676543-4.17095703-17.865-4.545 6.323-5.4 16.258-2.41 20.41-.791zm-11.306 42.914c-.49765509.9866182-1.69922353 1.385353-2.688.892-.47351697-.2364557-.83359957-.6514668-1.00091402-1.1535978-.16731446-.5021309-.12813223-1.0501806.10891402-1.5234022l15.014-30.021c.2474353-.493729.8482561-.6934057 1.342-.446l1.794.9c.49315.2474214.69273.8475037.446 1.341zm35.587-19.769c-4.0063777-4.732019-8.8779689-8.6570541-14.354-11.565-.4762898-.253802-.6652624-.8397496-.427-1.324l1.757-3.514c.1251904-.25071282.3498345-.43739283.6192261-.51457914.2693916-.0771863.5588096-.03779575.7977739.10857914 3.785 2.346 12.135 8.496 11.607 16.809z"/><path id="Shape" d="m45.745 49.652 1.907.603h.001.001l.601-1.907-1.907-.603z"/><path id="Shape" d="m32.235 50.093.603 1.906v.001l1.907-.603-.603-1.907z"/><path id="Shape" d="m53 13s-3 0-4 2c2.4438649 4.2721174 2.8118495 9.423903 1 14 0 0 3 5-2 8 0 0-2 7-10 2-4.9456311.2010003-9.2849891 3.356897-11 8 0 0-5-2-7 3 0 0-9-1-11 7h47c.5522847 0 1-.4477153 1-1v-47c-1.8487771.69256126-3.3074387 2.1512229-4 4zm-28.293 39.707-1 1c-.3923789.3789722-1.0160848.3735524-1.4018186-.0121814s-.3911536-1.0094397-.0121814-1.4018186l1-1c.3923789-.3789722 1.0160848-.3735524 1.4018186.0121814s.3911536 1.0094397.0121814 1.4018186zm10.642.6-1.907.6c-1.0523476.3340453-2.176313-.2478563-2.511-1.3l-.6-1.906c-.3333958-1.0520394.2483739-2.1753026 1.3-2.51l1.906-.6c1.0520394-.3333958 2.1753026.2483739 2.51 1.3l.6 1.907c.3283853 1.0489854-.2513051 2.1663855-1.298 2.502zm5.651-7.307c0 .5522847-.4477153 1-1 1s-1-.4477153-1-1v-1c0-.5522847.4477153-1 1-1s1 .4477153 1 1zm9.162 2.951-.6 1.907c-.1593525.5062235-.5139345.9280369-.98523 1.172037-.4712955.244-1.0204166.2900536-1.52577.127963l-1.905-.6c-1.0516261-.3346974-1.6333958-1.4579606-1.3-2.51l.6-1.907c.334687-1.0521437 1.4586524-1.6340453 2.511-1.3l1.905.6c1.0516261.3346974 1.6333958 1.4579606 1.3 2.51zm3.545-6.244c-.3904999.3903819-1.0235001.3903819-1.414 0l-1-1c-.3789722-.3923789-.3735524-1.0160848.0121814-1.4018186s1.0094397-.3911536 1.4018186-.0121814l1 1c.3903819.3904999.3903819 1.0235001 0 1.414z"/><path id="Shape" d="m37 29.816c-1-1.969-5 0-5 1.969s1 3.938 4 2.953 2-2.953 1-4.922z"/></g></g></svg>