<svg height="512pt" viewBox="-1 0 512 512" width="512pt" xmlns="http://www.w3.org/2000/svg"><path d="m491.378906 235.675781 18.035156-52.148437-18.226562-52.707032 17.921875-66.628906h-259.070313c.839844 5.398438 1.277344 10.925782 1.277344 16.554688v355.160156h-.03125c-.660156 29.207031-13.03125 55.566406-32.59375 74.566406h290.515625l-18.007812-65.671875 18.214843-52.671875-18.035156-52.152344 18.035156-52.152343zm0 0"/><path d="m78.550781 326.019531h65.339844c30.976563 0 58.925781 13.183594 78.550781 34.230469v-281.695312c0-43.316407-35.238281-78.554688-78.550781-78.554688h-65.339844c-43.3125 0-78.550781 35.238281-78.550781 78.554688v281.695312c19.625-21.046875 47.574219-34.230469 78.550781-34.230469zm0 0"/><path d="m222.441406 433.445312c0-43.3125-35.238281-78.550781-78.550781-78.550781h-65.339844c-43.3125 0-78.550781 35.238281-78.550781 78.550781 0 43.316407 35.238281 78.554688 78.550781 78.554688h65.339844c43.3125 0 78.550781-35.238281 78.550781-78.554688zm-162.320312.003907c0-10.164063 8.265625-18.433594 18.429687-18.433594h65.335938c10.167969 0 18.433593 8.269531 18.433593 18.433594 0 10.164062-8.269531 18.429687-18.433593 18.429687h-65.335938c-10.164062 0-18.429687-8.265625-18.429687-18.429687zm0 0"/></svg>